<?xml version="1.0" encoding="utf-8"?>
<!-- Generator: Adobe Illustrator 25.2.1, SVG Export Plug-In . SVG Version: 6.00 Build 0)  -->
<svg version="1.1" id="Layer_1" xmlns="http://www.w3.org/2000/svg" xmlns:xlink="http://www.w3.org/1999/xlink" x="0px" y="0px"
	 viewBox="0 0 491.4 189" style="enable-background:new 0 0 491.4 189;" xml:space="preserve">
<style type="text/css">
	.st0{fill:#9FFF00;}
	.st1{fill:none;stroke:#9FFF00;stroke-width:5;stroke-miterlimit:10;}
</style>
<g id="Layer_1_1_">
	<g>
		<rect x="243.8" y="30.7" class="st0" width="30.9" height="17"/>
		<polygon class="st0" points="220.2,30.7 220.2,120.4 238.1,120.4 238.1,84.6 275.1,84.6 275.1,68 238.1,68 238.1,47.7 238.1,47.7 
			238.1,30.7 		"/>
		<rect x="170.8" y="30.7" class="st0" width="30.9" height="17"/>
		<polygon class="st0" points="147.1,30.7 147.1,120.4 165,120.4 165,84.6 201.7,84.6 201.7,68 165,68 165,47.7 165,47.7 165,30.7 
					"/>
		<path class="st0" d="M329,73.1v-0.6c4.5-1.5,8.2-4.2,10.9-7.6s4.2-7.9,4.2-12.4c0-6.7-2.7-12.1-8.2-16.7s-12.1-6.7-20.3-6.7
			c-5.5,0-10.6,0.9-15.5,3c-5.2,1.8-9.4,4.5-13,7.9l8.5,12.7c6.4-4.5,12.4-7,17.9-7c3.6,0,6.7,0.9,9.1,2.7s3.3,4.2,3.3,7.6
			c0,3.3-1.2,5.8-3.6,7.6c-2.4,1.8-5.8,3-10,3h-9.7v16.1h11.2c4.2,0,7.6,0.9,10,3s3.9,4.9,3.9,8.2c0,3.3-1.2,6.1-3.9,8.2
			s-6.1,3-10.6,3c-6.4,0-13.3-2.1-20.6-6.7l-7.6,14.2c9.4,5.8,19.1,8.8,29.1,8.8c9.7,0,17.3-2.4,23.3-7.3c6.1-5.2,9.1-11.5,9.1-19.1
			c0-5.5-1.5-10.3-4.5-14.2C339,77.1,334.5,74.3,329,73.1z"/>
		<path class="st0" d="M383,103.7l15.8-17c11.2-11.5,16.7-21.8,16.7-30.3c0-7.9-2.7-14.6-8.2-19.7c-5.5-5.2-12.4-7.9-20.9-7.9
			c-11.5,0-22.1,4.5-31.5,13.9l9.7,12.7c7-6.7,13.9-10,20-10c3.6,0,6.4,1.2,8.8,3.3s3.6,4.9,3.6,8.2c0,2.1-0.6,4.5-2.1,7
			c-1.5,2.7-2.7,4.5-3.6,5.8c-0.3,0.6-2.4,2.4-5.8,6.1l-28,29.2v14.9H416v-16.4L383,103.7L383,103.7z"/>
	</g>
</g>
<path class="st0" d="M116,30.4H37.9v89.9h89.9v-78C127.8,35.7,122.5,30.4,116,30.4z M111.5,104c-7.9,7.6-17.5,11.5-28.8,11.5
	c-11.5,0-21.2-3.9-28.8-11.5S42.4,87,42.4,75.7S46.1,55,53.9,47.2c7.9-7.9,17.5-11.8,28.8-11.8v15.2c-6.8,0-12.6,2.4-17.3,7.1
	s-7.1,10.7-7.1,17.8c0,7.1,2.1,12.8,6.8,17.5c4.7,4.7,10.5,7.1,17.3,7.1c6.8,0,12.6-2.4,17.3-7.1c4.4-4.4,6.8-10.5,6.8-17.5v0.3
	h16.7C123.3,86.8,119.4,96.2,111.5,104z"/>
<rect x="17.7" y="10.5" class="st1" width="418.6" height="130"/>
<line class="st1" x1="436.4" y1="140.5" x2="474.4" y2="178.5"/>
<polyline class="st1" points="17,141.2 55.7,178.5 474.4,178.5 474.4,48.5 437.1,9.7 "/>
</svg>
